PathFileType	4	(X/Y/Z)	C:\Users\WrightLab\Desktop\Jo\P3_33.trc
DataRate	CameraRate	NumFrames	NumMarkers	Units	OrigDataRate	OrigDataStartFrame	OrigNumFrames
100.00	100.00	       12	19	mm	100.00	162	       646
Frame#	Time	Headset_Front			Headset_Back			Headset_Left			Headset_Right			Left_Shoulder			Right_Shoulder			Sternum			C7			Left Elbow			Right Elbow			Left Wrist			Right Wrist			Left ASIS			Right ASIS			S2			Left Knee			Right Knee			Left Ankle			Right Ankle			
		X1	Y1	Z1	X2	Y2	Z2	X3	Y3	Z3	X4	Y4	Z4	X5	Y5	Z5	X6	Y6	Z6	X7	Y7	Z7	X8	Y8	Z8	X9	Y9	Z9	X10	Y10	Z10	X11	Y11	Z11	X12	Y12	Z12	X13	Y13	Z13	X14	Y14	Z14	X15	Y15	Z15	X16	Y16	Z16	X17	Y17	Z17	X18	Y18	Z18	X19	Y19	Z19	

162	1.610	-123.39755	1441.81506	956.28156	-9.77692	1628.04297	1166.14502	-151.68808	1550.39087	1134.72974	12.93145	1503.62854	982.35577	-192.98672	1328.79822	1214.09900	159.90576	1354.53076	1153.24683	-37.48037	1223.89087	1054.45435	-9.09114	1393.72803	1231.64050	-291.93323	1008.10986	1250.13257	272.77167	1019.35150	1171.15930	-368.75909	843.00891	1151.56482	265.10797	854.62665	1018.26459	-106.21050	855.62604	1077.55444				21.15572	944.71918	1287.65723	-76.28687	461.32166	1007.04767	165.47189	448.54755	1244.18188	-32.80074	133.41435	990.34558	164.24298	199.19705	1481.72473	
163	1.620	-125.30462	1443.69165	945.98871	-11.77891	1629.26001	1156.56262	-153.88684	1551.96021	1124.77234	11.33494	1504.99683	972.83667	-194.86150	1329.82776	1205.26831	158.07806	1356.00916	1142.52051	-39.99926	1225.15088	1044.25391	-10.86719	1394.86841	1221.70300	-287.97223	1006.94781	1244.68848	268.74173	1019.50671	1159.68250	-363.53925	840.70068	1148.75500	261.22092	853.83527	1009.01495	-108.73649	857.96161	1066.62402				21.68280	946.01404	1275.22632	-77.31565	462.05023	999.50183	166.69298	447.85559	1225.76892	-33.28166	133.39436	988.64246	166.12421	204.22702	1470.69092	
164	1.630	-127.47623	1445.99585	936.16589	-14.37193	1630.56982	1147.33899	-155.85704	1553.30200	1114.70154	7.42903	1508.61255	959.13135	-196.61188	1331.17810	1196.43469	156.01506	1357.51306	1131.84375	-42.61397	1226.72449	1033.80725	-12.33479	1395.94128	1211.19495	-284.67163	1007.04871	1239.11230	265.80673	1020.99622	1148.61169	-358.59851	838.42773	1146.55090	256.46466	853.52911	999.53790	-111.66085	860.08618	1056.77002				21.36043	947.52563	1263.94250	-78.41573	463.29346	992.34656	168.17638	446.55060	1207.14294	-33.81208	133.29413	986.58789	168.02220	210.16620	1458.84485	
165	1.640	-129.00107	1448.48621	925.70135	-16.29172	1631.96155	1137.99121	-158.05592	1554.70667	1104.97656	5.91394	1510.78088	950.29834	-198.44423	1332.65149	1187.79834	153.61002	1358.94385	1119.99512	-45.64601	1228.59204	1023.67841	-14.36672	1397.22388	1201.35815	-280.81723	1006.88428	1234.72205	262.18222	1022.46149	1137.12720	-353.17212	836.15521	1141.55298	252.24997	853.15295	989.91461	-114.49308	862.96753	1045.84009				20.95901	949.65106	1251.99976	-79.81113	463.16031	986.53876	168.82326	445.79053	1187.90625	-34.17484	133.12686	984.65863	169.91586	215.78539	1445.35925	
166	1.650	-130.19540	1449.67883	915.62079	-19.14209	1633.54395	1128.95032	-160.58473	1556.47546	1095.27295				-200.12447	1333.80847	1179.12439	151.62256	1360.84460	1108.29468	-48.60252	1230.71851	1013.29669	-15.86865	1398.53113	1190.72009	-277.02576	1007.07367	1228.10938	259.00156	1023.89014	1126.37952	-347.52100	834.37482	1139.36975	247.84926	853.46796	980.61688	-116.95288	865.09094	1037.20325				20.61727	951.01733	1240.90625	-81.88834	463.24429	981.28394	168.75166	444.22260	1166.99878	-34.50638	133.11192	983.95996	171.24698	221.22942	1431.26855	
167	1.660	-131.68324	1452.03357	905.52124	-21.17017	1634.53479	1119.88733	-162.56764	1557.77563	1085.53455	2.33590	1514.54858	930.12573	-202.17084	1335.51245	1169.92432	149.46594	1362.18677	1098.26587	-51.75356	1232.51611	1002.96619	-17.40325	1399.50635	1180.65759	-273.29471	1007.16449	1221.70935	255.47147	1025.40344	1115.16602	-341.85101	832.74683	1135.06860	243.46600	853.09863	970.74481	-119.58521	867.08893	1025.75085				20.03154	952.40985	1230.58289	-83.99877	463.20074	975.56976	168.06259	442.67343	1146.98389	-34.74277	133.24979	982.84906	173.73993	227.62172	1415.87549	
168	1.670	-133.69235	1454.32300	895.82227	-23.52224	1635.56335	1110.95520	-164.40587	1558.91687	1075.80396				-203.57101	1336.69800	1161.21265	147.10805	1363.35364	1087.21277	-53.87504	1233.75598	992.77753	-19.56143	1400.99390	1170.75317	-270.41757	1007.89459	1215.14038	252.27580	1026.40015	1103.20007	-336.77997	831.46722	1130.47375	239.19843	853.11749	960.45551	-122.13345	868.37787	1016.64722				18.90918	953.85010	1219.96729	-85.08282	462.25531	971.46564	166.79295	441.28702	1125.86218	-34.90351	133.17915	982.53680	175.34084	233.60516	1399.90637	
169	1.680	-135.45247	1456.21814	885.68439	-25.46350	1636.63171	1102.02063	-166.36975	1560.13123	1066.25330				-205.49559	1338.00818	1152.43115	145.49825	1364.70422	1075.90454	-56.58667	1235.63159	983.04651	-20.59728	1402.13013	1160.26282	-267.57819	1008.69971	1207.87341	249.68564	1027.43628	1092.14734	-330.93393	829.60999	1126.20251	234.32959	853.03113	951.52631	-125.05584	870.36163	1007.61005				17.79620	954.74841	1209.95471	-87.14643	462.18509	968.12671	165.08195	440.77234	1103.62390	-34.98924	132.94331	982.08960	176.98544	239.91208	1380.49890	
170	1.690	-136.87871	1457.94580	875.95258	-26.89676	1637.62744	1092.87793	-168.31323	1561.37671	1056.55664				-207.16344	1339.20715	1142.55664	143.61972	1366.70435	1065.33545	-58.72039	1236.86328	973.36725	-22.37581	1403.49841	1150.56836	-264.57019	1009.04498	1201.21313	247.79906	1029.00195	1081.34888	-326.00677	828.12341	1121.51465	229.70851	852.72321	941.08038	-126.41096	870.99902	999.01666				16.40646	955.76599	1199.94348	-88.82017	461.62198	964.24701	163.02345	439.50281	1081.49194	-35.14581	132.88754	981.98840	177.21568	245.38493	1361.80029	
171	1.700	-137.80089	1460.10120	866.05585	-29.19973	1638.56067	1083.95435	-169.78307	1562.33447	1046.79834				-208.90479	1340.07007	1134.08191	142.01663	1367.59216	1054.75000	-61.02711	1237.98694	963.33203	-23.54721	1404.43445	1140.29443	-262.17987	1009.46320	1194.31067	245.05380	1029.58472	1069.46655	-320.70255	826.85468	1115.95471	225.34563	852.45013	931.35651	-128.37248	871.05127	991.88165				15.13229	956.55151	1190.40112	-90.58607	460.59332	960.69275	160.72433	439.14038	1058.73108	-35.35780	132.72375	981.96429	178.29973	251.98413	1342.14551	
172	1.710	-139.30518	1461.86499	855.76154	-30.92505	1639.81238	1074.82629	-171.42796	1563.45325	1036.98474				-210.71753	1340.90259	1124.81799	140.28391	1368.53430	1044.25183	-62.68129	1238.28857	954.14398	-25.40840	1405.97729	1130.50598	-260.15494	1010.00055	1187.08020	242.91132	1029.85779	1057.76868	-315.75516	825.71124	1111.01489	220.78313	852.16132	921.01575	-131.21260	871.18274	981.72406				13.41195	957.46149	1181.49231	-91.58546	459.20654	958.15118	157.95004	439.85074	1036.15100	-35.96388	132.90077	981.79321	178.25549	256.93057	1321.00024	
173	1.720	-140.40706	1463.24524	845.94153	-32.59546	1640.57935	1065.78601	-173.24153	1564.59338	1027.23096				-212.32487	1341.69495	1115.40698	138.29912	1369.02795	1033.59692	-65.07420	1239.02551	944.67456	-27.05915	1406.97412	1120.88037	-258.01166	1009.97644	1179.25610	240.73990	1030.81189	1045.84802	-310.67426	824.19409	1105.16772	216.24025	851.92596	910.41327	-132.96167	871.36169	974.71326				11.12455	957.68231	1170.49292	-93.46055	459.35202	954.88812	155.27148	441.08566	1012.95673	-36.23440	133.00783	981.49475	177.98030	261.35657	1300.89575	
